<?xml version="1.0" encoding="utf-8" ?><svg xmlns="http://www.w3.org/2000/svg" xmlns:xlink="http://www.w3.org/1999/xlink" width="816" height="816" viewBox="0 0 816 816"><clipPath id="cl_3"><rect x="1.5258789e-05" y="7.6293945e-05" width="816.00006" height="816.00006"/></clipPath><g clip-path="url(#cl_3)"><path transform="matrix(1.06667 0 0 1.05974 -140.8 -136.706)" d="M225.752 143.18C233.173 142.05 250.11 142.887 258.102 142.869L323.795 142.847L522.182 142.909L713.304 142.867L769.339 142.895C802.756 142.925 824.283 141.387 851.834 164.546C870.036 180.085 881.347 202.197 883.295 226.051C884.149 236.334 883.642 254.323 883.644 265.176L883.793 333.484L883.683 556L883.689 721.289L883.625 771.927C883.613 780.493 884.002 793.325 883.019 801.411C880.92 819.384 873.505 836.323 861.724 850.058C846.806 867.574 825.552 878.461 802.62 880.333C792.341 881.641 773.972 880.677 763.266 880.647L691.412 880.544L467.949 880.696L292.948 880.666L248.063 880.561C232.877 880.555 220.237 881.362 205.36 877.05C171.507 867.238 146.067 837.024 142.602 801.841C141.453 790.169 141.912 777.746 141.903 765.998L141.953 704.755L142.016 517.098L141.926 322.5L141.885 258.195C141.911 232.36 139.799 214.226 152.953 190.561C169.053 161.6 193.49 146.869 225.752 143.18ZM160.441 596.832C160.822 614.53 160.454 632.954 160.51 650.728L160.926 736.479C160.915 748.293 160.836 760.106 160.69 771.918C160.583 781.74 160.241 792.28 161.366 802.015C162.286 810.155 164.788 818.037 168.732 825.217C191.795 867.854 229.164 861.976 270.11 861.935L334.991 861.907L607.692 861.895L739.019 861.888L777.189 861.949C784.156 861.985 793.359 862.287 800.164 861.83C810.153 861.153 819.871 858.289 828.631 853.442C844.955 844.289 856.975 829.027 862.048 811.013C865.405 798.942 864.445 781.461 864.433 768.404L864.436 727.294L864.451 575.09L864.426 340.436L864.431 266.911C864.443 242.678 867.51 219.183 855.141 197.337C845.934 181.274 830.673 169.572 812.772 164.848C802.785 162.148 787.205 162.733 776.381 162.716L738.922 162.655L578.479 162.685L347.736 162.662L267.804 162.646C253.618 162.638 238.894 162.517 224.769 162.771C216.711 162.916 202.348 167.606 195.446 171.801C177.586 182.654 167.226 197.895 161.886 217.743C159.977 231.834 160.556 246.064 160.496 260.354L160.426 327.243L160.439 509.938C160.429 537.834 161.252 569.378 160.441 596.832Z"/><path transform="matrix(1.06667 0 0 1.05974 -140.8 -136.706)" d="M458.889 700.793C428.863 690.401 412.854 684.611 385.777 666.573C279.336 595.665 258.813 429.452 326.782 326.248C360.054 275.206 412.289 239.52 471.935 227.082C543.121 212.646 617.823 238.238 669.024 288.911C702.217 321.762 722.268 361.265 731.415 406.893C745.115 475.235 737.144 547.233 697.991 606.123C663.88 657.163 610.865 692.536 550.641 704.439C568.77 711.564 587.411 718.347 605.667 725.392C617.509 729.978 629.384 734.475 641.293 738.884C673.305 750.775 708.768 763.157 741.829 746.981C755 740.536 761.142 733.605 770.623 722.914C773.939 725.294 780.615 730.782 783.363 733.594C778.433 739.702 774.083 746.753 768.964 752.745C748.135 777.297 721.182 805.635 688.829 812.792C646.405 822.177 608.452 799.336 576.022 775.067C539.6 747.812 494.715 716.577 446.651 726.355C424.305 730.901 403.325 746.759 390.717 765.645C388.442 769.053 386.959 772.557 384.814 775.928C382.41 781.626 380.898 785.781 378.828 791.599C378.398 793.02 378.839 792.567 377.726 793.209C375.019 792.726 367.364 788.805 364.39 787.362C367.382 774.423 372.768 762.158 380.268 751.198C394.774 729.984 413.113 716.396 436.962 707.45C443.632 704.948 451.898 702.089 458.889 700.793ZM519.33 690.925C553.235 687.83 583.276 677.812 605.033 650.002C655.638 585.318 653.584 485.608 648.048 408.23C642.466 330.209 599.273 235.137 507.351 240.216C375.788 249.788 368.565 418.583 376.299 517.974C383.027 604.437 416.139 693.891 519.33 690.925Z"/></g></svg>